/* XPM */
static char *_6241dae51a443b4a21438dba0dadd6dWN9j2zmjeLjglMIU[] = {
/* columns rows colors chars-per-pixel */
"32 32 250 2 ",
"   c None",
".  c #08332C",
"X  c #09332D",
"o  c #0A342D",
"O  c #0B342E",
"+  c #0A352E",
"@  c #0C352E",
"#  c #0C362F",
"$  c #0E3F37",
"%  c #0E4038",
"&  c #0E4139",
"*  c #0E4239",
"=  c #0E423A",
"-  c #0F433A",
";  c #0E433B",
":  c #0E483F",
">  c #0F483F",
",  c #10473E",
"<  c #10483E",
"1  c #10493F",
"2  c #104940",
"3  c #104A40",
"4  c #114A41",
"5  c #114B41",
"6  c #134B42",
"7  c #104C42",
"8  c #125248",
"9  c #125348",
"0  c #175D52",
"q  c #264C46",
"w  c #274C46",
"e  c #274D46",
"r  c #274D47",
"t  c #284D47",
"y  c #284E48",
"u  c #294F48",
"i  c #2C5F57",
"p  c #2D6259",
"a  c #197566",
"s  c #1B7D6D",
"d  c #1B7E6E",
"f  c #1C7E6E",
"g  c #1C7F6F",
"h  c #41645D",
"j  c #41645E",
"k  c #42645E",
"l  c #1C8070",
"z  c #1C8170",
"x  c #1D8271",
"c  c #1D8372",
"v  c #1D8473",
"b  c #1D8775",
"n  c #1E8675",
"m  c #1E8775",
"M  c #1D8776",
"N  c #1E8776",
"B  c #1E8875",
"V  c #1E8876",
"C  c #1E8976",
"Z  c #1E8A77",
"A  c #1F8C79",
"S  c #1F8D7A",
"D  c #1F907D",
"F  c #1F937F",
"G  c #208775",
"H  c #208877",
"J  c #208A78",
"K  c #228F7C",
"L  c #20937F",
"P  c #269481",
"I  c #209984",
"U  c #219984",
"Y  c #219985",
"T  c #219A86",
"R  c #219B86",
"E  c #229B86",
"W  c #239D88",
"Q  c #249E89",
"!  c #249F8A",
"~  c #2C9F8B",
"^  c #2D9F8B",
"/  c #22A08A",
"(  c #25A38D",
")  c #2DA08C",
"_  c #2DA18D",
"`  c #28A792",
"'  c #2DA590",
"]  c #2CA591",
"[  c #30A994",
"{  c #32A995",
"}  c #27B59D",
"|  c #27B79E",
" . c #28B79F",
".. c #28B89F",
"X. c #29B89F",
"o. c #28BBA2",
"O. c #29BDA3",
"+. c #29BDA4",
"@. c #29BEA4",
"#. c #29BFA5",
"$. c #2ABFA4",
"%. c #2ABFA5",
"&. c #2BC2A8",
"*. c #2AC3A9",
"=. c #2AC4A9",
"-. c #2AC4AA",
";. c #2AC6AA",
":. c #2AC6AB",
">. c #2BC6AB",
",. c #2BC7AB",
"<. c #2BC7AC",
"1. c #2DCAAF",
"2. c #2ECAAF",
"3. c #2FCBB0",
"4. c #2CCDB1",
"5. c #2CCEB2",
"6. c #30CDB1",
"7. c #30CDB2",
"8. c #30D4B7",
"9. c #31D4B7",
"0. c #36D3B8",
"q. c #3FD5BB",
"w. c #41CEB6",
"e. c #40D5BC",
"r. c #40D6BD",
"t. c #47D6BE",
"y. c #4FD6BF",
"u. c #41D8BD",
"i. c #35E0C2",
"p. c #43DAC0",
"a. c #43DAC1",
"s. c #46DBC2",
"d. c #42DEC4",
"f. c #42DFC4",
"g. c #42E2C6",
"h. c #44E1C6",
"j. c #44E2C7",
"k. c #45E2C7",
"l. c #46E2C7",
"z. c #43E3C8",
"x. c #45E4C8",
"c. c #45E4C9",
"v. c #46E9CD",
"b. c #47EACE",
"n. c #47ECCF",
"m. c #49EBCF",
"M. c #55E6CC",
"N. c #4AEDD1",
"B. c #4CEED3",
"V. c #56EED4",
"C. c #5BECD4",
"Z. c #58F0D6",
"A. c #74E0CD",
"S. c #75E6D2",
"D. c #7EE9D6",
"F. c #7FE9D6",
"G. c #6CF0DA",
"H. c #6EF1DA",
"J. c #80E9D6",
"K. c #80EAD7",
"L. c #87EBD9",
"P. c #84F1DE",
"I. c #8AF4E2",
"U. c #8BF4E2",
"Y. c #8CF4E2",
"T. c #8CF5E3",
"R. c #8DF5E3",
"E. c #8EF5E3",
"W. c #8EF6E4",
"Q. c #92F4E3",
"!. c #94F5E4",
"~. c #95F5E4",
"^. c #95F6E5",
"/. c #98F5E5",
"(. c #99F5E5",
"). c #A0F6E7",
"_. c #A1F6E7",
"`. c #A2F6E7",
"'. c #A5F6E8",
"]. c #A7F7E9",
"[. c #AFF3E8",
"{. c #A8F6E8",
"}. c #A8F7E8",
"|. c #AAF6E8",
" X c #ABF7EA",
".X c #ACF7E9",
"XX c #ACF7EA",
"oX c #ADF7EA",
"OX c #AFF7EB",
"+X c #B0F5E9",
"@X c #B3F5E9",
"#X c #B3F5EA",
"$X c #B0F7EA",
"%X c #B1F7EB",
"&X c #B2F7EB",
"*X c #B7F5EA",
"=X c #BBF5EB",
"-X c #BAF6EC",
";X c #B4F8EC",
":X c #B5F8EC",
">X c #CBD4D3",
",X c #CCD4D3",
"<X c #D1E9E5",
"1X c #DCE9E7",
"2X c #DDEAE8",
"3X c #DDEAE9",
"4X c #DEEAE8",
"5X c #DFEAE8",
"6X c #C4F5EC",
"7X c #C0F8EF",
"8X c #C5F9F0",
"9X c #C7F9F0",
"0X c #C8F9F1",
"qX c #C9F9F1",
"wX c #CBF9F1",
"eX c #CDFAF2",
"rX c #CEFAF2",
"tX c #CFFAF3",
"yX c #D1FAF3",
"uX c #D1FBF3",
"iX c #D2FAF3",
"pX c #D3FBF4",
"aX c #D4FBF4",
"sX c #D5FBF4",
"dX c #D6FBF5",
"fX c #D9F9F3",
"gX c #E3E7E6",
"hX c #E3E7E7",
"jX c #E3EAE9",
"kX c #E2EBE9",
"lX c #E4E8E8",
"zX c #E2FCF8",
"xX c #E8FCF9",
"cX c #EAFDF9",
"vX c #EAFDFA",
"bX c #EBFDFA",
"nX c #ECFDFA",
"mX c #EEFDFB",
"MX c #EDFFFB",
"NX c #EDFFFC",
"BX c #F0FDFB",
"VX c #F1FEFB",
"CX c #F2FDFC",
"ZX c #F2FFFE",
"AX c #F6FFFE",
"SX c #F7FFFE",
"DX c #F8FFFF",
"FX c #FAFFFF",
"GX c #FBFFFF",
"HX c #FCFFFF",
/* pixels */
"                                                                ",
"                                                                ",
"                                                                ",
"                                                                ",
"                        + + + + + + + +                         ",
"                        u u u u u u u r                         ",
"                    . r >XlXhXhXhXhXlX>Xt .                     ",
"                    r k 2XGXAXAXAXAXHXjXp :                     ",
"                . r >X2X@XOX XXX X@XpX6Xw. .3 #                 ",
"                r k jXZXOX`.`.`. XOX7XOXj.3.3 #                 ",
"            + u >XkXfXyX].(.). XbXzXG.V.N.r.3 #                 ",
"            + u hXGXpX6X@X X X@XZXxXG.C.B.u.0 >                 ",
"            . r hXAX@XOXbXZXyXrXdXdX9X&XZ.v.6. .3 #             ",
"            r j 1XMX:X*XbXMXrX0X9X0X0X-XM.g.i.2.3 #             ",
"        + u >X2X@X:XMXcX'.(.~.~.!.~.~.L.{ ` j.r.6 #             ",
"        + u hXAX X XMXmX~.U.Y.U.I.I.W.F.~ Q c.a.0 :             ",
"        + u hXAXOX'.pXrX~.U.Y.U.T.Y.T.F.) ! z.n.5.o.3 #         ",
"        + u hXAX@X X=X*XQ.Y.Y.U.T.Y.T.F.) R q.f.9.#.2 #         ",
"        + u hXHXyX=Xy.t.P.W.W.W.T.T.T.K.~ P J H M s $ #         ",
"        + u hXGXqX+Xq.0.S.J.F.F.K.K.K.A.] E M c s a $ #         ",
"        + u hXNXH.V.N.j.] ) ) ) ~ ^ ) ' &.<.&.#.E M - #         ",
"        + u ,X<XC.v.j.r.( E E E E E E / #.;.4.;.L l - #         ",
"            t p s.j.P K &.;.<.<.>.>.>.O.A A ;.O.8 %             ",
"            O 3 r.d.G c &.4.4.4.4.4.4.>.c c #.} , #             ",
"            # 3 6.9.M c &.4.4.4.4.4.4.&.M d E S - #             ",
"            # 3  .#.M G ;.4.4.4.4.4.4.;.M g M g % #             ",
"                3 8 V E <.4.4.4.4.5.4.<.E M 3 -                 ",
"                + $ c L } o.o.o.o.#.o.} D l - #                 ",
"                    - ; 1 1 1 1 > 1 1 1 - -                     ",
"                    + # # # # # # # # # # #                     ",
"                                                                ",
"                                                                "
};
