/* XPM */
static char *_10770c6ce1d4c059db1fce3f7a1db7e424fUryxf5znq6iR[] = {
/* columns rows colors chars-per-pixel */
"16 16 107 2 ",
"   c None",
".  c #0E423A",
"X  c #0F433A",
"o  c #0F443B",
"O  c #0F443C",
"+  c #0F453C",
"@  c #104A41",
"#  c #104B41",
"$  c #104B42",
"%  c #104C42",
"&  c #114C42",
"*  c #114C43",
"=  c #12544A",
"-  c #13554A",
";  c #2B504A",
":  c #2D514B",
">  c #2D524C",
",  c #2E524C",
"<  c #176054",
"1  c #186155",
"2  c #2F635B",
"3  c #2D655B",
"4  c #456661",
"5  c #466762",
"6  c #476762",
"7  c #1D8271",
"8  c #1C8371",
"9  c #1D8473",
"0  c #1D8573",
"q  c #1D8674",
"w  c #1E8B78",
"e  c #20927E",
"r  c #229380",
"t  c #209682",
"y  c #279D89",
"u  c #2DA490",
"i  c #2EA792",
"p  c #26AF97",
"a  c #2DA994",
"s  c #28AE96",
"d  c #32A994",
"f  c #30AD97",
"g  c #27B49C",
"h  c #29B29A",
"j  c #37B59F",
"k  c #28BAA1",
"l  c #28BBA2",
"z  c #2ABBA2",
"x  c #2DBBA2",
"c  c #28BEA3",
"v  c #29BEA3",
"b  c #3EBEA7",
"n  c #2AC5A9",
"m  c #2AC5AA",
"M  c #2AC6AA",
"N  c #2AC7AA",
"B  c #3ECCB3",
"V  c #3CCFB5",
"C  c #2CD0B3",
"Z  c #3CD2B8",
"A  c #3FD7BD",
"S  c #43D9BF",
"D  c #58DDC6",
"F  c #74DFCD",
"G  c #50E3CA",
"H  c #6AEDD6",
"J  c #77E6D3",
"K  c #7FE8D6",
"L  c #7FE9D7",
"P  c #77F3DD",
"I  c #BAD4CF",
"U  c #80E9D7",
"Y  c #87EAD9",
"T  c #8CF5E3",
"R  c #8DF6E4",
"E  c #93F5E4",
"W  c #95F5E4",
"Q  c #95F6E5",
"!  c #A5F6E8",
"~  c #ACF6EA",
"^  c #B3F5EA",
"/  c #B1F7EB",
"(  c #B6F6EB",
")  c #B8F5EA",
"_  c #BDF7ED",
"`  c #B0F8EB",
"'  c #B0F9EB",
"]  c #B5F8EB",
"[  c #B8F9EE",
"{  c #BCFAEF",
"}  c #C2D5D1",
"|  c #C3D5D2",
" . c #C2D7D3",
".. c #C4D4D2",
"X. c #C7D5D2",
"o. c #D6E5E2",
"O. c #D6E5E3",
"+. c #D6E6E3",
"@. c #D9E5E3",
"#. c #D4E8E5",
"$. c #C3FBF0",
"%. c #C9FAF2",
"&. c #CBFAF2",
"*. c #D1FAF2",
"=. c #D6FBF5",
"-. c #DBFCF6",
";. c #DDFCF6",
/* pixels */
"                                ",
"                                ",
"            > > > >             ",
"          4 | +.+...2           ",
"        4  .( ' { / b #         ",
"      ; X.*./ / =.P S 1         ",
"      4 #.$.;.%.&.~ G x &       ",
"    > | { ;.! W W Y j V 1       ",
"    > +.[ ( W T R U d Z h @     ",
"    > @.( D J U U F i r 7 .     ",
"    > I H S a a i a z z 9 .     ",
"      3 B y v M M v t p =       ",
"      & s r M C C M w 8 o       ",
"        - 0 g k z g 0 &         ",
"          + # # @ @ +           ",
"                                "
};
