/* XPM */
static char *_10b40dd5cd24fa1cc0cca426021c056wjKGEI57tQt9WAjM[] = {
/* columns rows colors chars-per-pixel */
"64 64 128 2 ",
"   c None",
".  c #0B352E",
"X  c #0C3730",
"o  c #0E3F37",
"O  c #0E4239",
"+  c #0E493F",
"@  c #10473E",
"#  c #10483F",
"$  c #114A40",
"%  c #125247",
"&  c #175D51",
"*  c #274D47",
"=  c #284D47",
"-  c #284E48",
";  c #2B5F56",
":  c #2C6058",
">  c #3F625D",
",  c #197465",
"<  c #1B7B6B",
"1  c #40625D",
"2  c #1D8473",
"3  c #1D8976",
"4  c #1E8B78",
"5  c #1F927E",
"6  c #208776",
"7  c #208877",
"8  c #218C7B",
"9  c #20937F",
"0  c #1F9480",
"q  c #209581",
"w  c #219B86",
"e  c #259F8A",
"r  c #2C9F8B",
"t  c #24A28C",
"y  c #2CA08C",
"u  c #2CA490",
"i  c #2CA893",
"p  c #32A994",
"a  c #27B69D",
"s  c #28BCA2",
"d  c #2AC0A6",
"f  c #2AC5AA",
"g  c #2CC9AD",
"h  c #2CCDB1",
"j  c #3FCEB5",
"k  c #2ED1B5",
"l  c #2FDCBE",
"z  c #34D2B6",
"x  c #3DD2B9",
"c  c #30DCBE",
"v  c #40D6BD",
"b  c #4CD7BF",
"n  c #43D8BF",
"m  c #33DEC0",
"M  c #43DDC2",
"N  c #45E1C6",
"B  c #45E3C8",
"V  c #47EACE",
"C  c #49EACE",
"Z  c #54E6CD",
"A  c #47ECD0",
"S  c #4AEDD1",
"D  c #57EED4",
"F  c #5AEED5",
"G  c #75E0CE",
"H  c #77E6D3",
"J  c #7FE9D7",
"K  c #6BF0DA",
"L  c #80E9D7",
"P  c #83EAD9",
"I  c #82F0DD",
"U  c #8CF4E2",
"Y  c #94F5E4",
"T  c #99F5E5",
"R  c #A1F6E7",
"E  c #A6F6E8",
"W  c #ACF7EA",
"Q  c #B1F6EA",
"!  c #BDF5EB",
"~  c #B5F8EC",
"^  c #CDD6D4",
"/  c #D2E9E4",
"(  c #DDEAE7",
")  c #DFE9E8",
"_  c #C2F6ED",
"`  c #C2F9EF",
"'  c #C4F9F0",
"]  c #CBFAF2",
"[  c #D2FBF3",
"{  c #D2FAF3",
"}  c #D1FAF3",
"|  c #D7F9F3",
" . c #D4FBF3",
".. c #D2FAF4",
"X. c #D3FAF4",
"o. c #D5FBF4",
"O. c #D6FBF4",
"+. c #D7FBF4",
"@. c #D7FBF5",
"#. c #E3E8E7",
"$. c #E4E8E7",
"%. c #E2EAE8",
"&. c #E2EAE9",
"*. c #E4E9E8",
"=. c #E4E9E8",
"-. c #E2FCF8",
";. c #E8FCF9",
":. c #EAFDF9",
">. c #EAFDFA",
",. c #EBFDFA",
"<. c #ECFDFA",
"1. c #EDFDFB",
"2. c #EFFEFB",
"3. c #EAFDFA",
"4. c #F0FDFB",
"5. c #F1FDFB",
"6. c #F2FEFC",
"7. c #F3FEFC",
"8. c #F4FEFC",
"9. c #F5FEFC",
"0. c #F6FFFD",
"q. c #F8FEFD",
"w. c #F9FEFE",
"e. c #FAFEFE",
"r. c #FBFEFE",
"t. c #FCFFFF",
"y. c white",
"u. c white",
/* pixels */
"                                                                                                                                ",
"                                                                                                                                ",
"                                                                                                                                ",
"                                                                                                                                ",
"                                                                                                                                ",
"                                                                                                                                ",
"                                                                                                                                ",
"                                                                                                                                ",
"                                                X X X X X X X X X X X X X X X X                                                 ",
"                                                X X X X X X X . X X X X X X X X                                                 ",
"                                                . . . . . . . . . . . . . . . .                                                 ",
"                                                * * - * * * = = * - - * - * * *                                                 ",
"                                        X X . * ^ =.#.#.#.#.#.#.=.#.#.#.#.#.=.^ * . X X                                         ",
"                                        X . . * =.y.y.y.y.y.y.y.y.y.y.y.y.y.y.#.* . X X                                         ",
"                                        . . . * #.y.y.y.y.y.y.y.y.y.y.y.y.y.y.=.- . . .                                         ",
"                                        * * * > ( 8.7.7.7.9.9.9.7.7.8.8.r.r.r.) : + + $                                         ",
"                                X X . * ^ #.#.( Q W W W W W W W W W W ~  .o.@._ v g g a # X X X                                 ",
"                                X X . * #.y.y.7.W R R R R E R R R R R E ]  . .! b c c g # X X X                                 ",
"                                . . . * #.y.y.7.W R R R R R R R R R R E ] [  ._ N l c f # X X X                                 ",
"                                * - * > =.y.r.2.W R R R R R R E W W W W ! ' ` Q N c c z # X X X                                 ",
"                        X X X * ^ =.#.=.X.o.o.} E R R R R R R W ,.8.8.-.K F F D C C S x $ X X X                                 ",
"                        X X . - #.y.y.r.o.} } ] W E R R R R R W 8.y.y.,.F S S A C C S M $ X X X                                 ",
"                        X X . * #.y.y.r.+.} } ] W T R R R R R W 7.y.y.,.F S S C S S S n $ X X X                                 ",
"                        X X . * #.y.y.r.} ] ] ] Q W W W E E W Q 7.r.r.,.K F F F S S S M & # # #                                 ",
"                        X X . * #.y.y.7.Q E E Q ,.8.8.7.} ] ] ] } o.X.X.` ` ` ~ D S S V h g g s $ . X X                         ",
"                        X . . * #.y.y.7.W R R W 8.y.y.r.+.} X.} } } } } X.} X.` F S S V m c m g $ . X X                         ",
"                        . . . * #.y.y.8.W R T W 7.y.y.r.+.} } } } } } } } } X.` D A S V c c c g $ . X X                         ",
"                        * * * > ( 8.7.2.~ W W ~ ,.7.7.,.] ] ] ' ] ] ] ] ] ] ] ! Z B B B m c c g $ . X X                         ",
"                X X . * ^ =.#.( Q W W ~ 2.7.7.,.R T T T Y Y U Y Y Y T T Y Y Y P p e e i B S A v $ X X X                         ",
"                X X . - #.y.y.8.W R R W 7.y.y.7.T U U U U U U U U U U U I Y U L y 5 5 e B S S n $ X X X                         ",
"                X X . - #.y.y.7.W R R W 8.y.y.7.T U U U U U U U U U U U U U U L y 0 9 e B S S b $ . X .                         ",
"                X X . * #.y.y.7.W R R W 7.r.r.,.T U U U U U U U U U U U U U U L y 5 q t B S S M & # $ $                         ",
"                X X . - #.y.y.8.W R R W } X.+.] Y U U I U U U U U U U U U U U L y 0 q e B S S V h g g a $ . X X                 ",
"                X X . - #.y.y.8.W R R E ] }  .] Y U U U U U U U U U U U U U U L y 0 9 t B S S V c c m g $ . X X                 ",
"                X X . * #.y.y.7.W R R E ] X.X.] Y U U U U U U U U U U I U U U P y 0 9 e B S S V c c c g $ . X X                 ",
"                X X . - #.y.y.7.~ E E E ! _ ! ~ Y U U U U U U U U U U U U U U L y 5 q t n B B M z k z d # . X X                 ",
"                X X . * #.y.y.r.} ] ] ! b x v b I U U U U U U U U U U U U U U L y 0 q q 3 3 3 3 2 2 2 < O . X X                 ",
"                X X . * #.y.y.r.| [ } _ x h g z J Y U U U U U U U U U U U U U L y 0 q 5 < < < < < < < , o . X X                 ",
"                X X . * #.y.y.r.+. .} _ x g k z J Y U U U Y Y U U Y U U U Y Y J y 0 q 9 < < , < < < < , o . X X                 ",
"                X X X * #.y.y.8.] _ _ Q n k k x K J J J J J J L J J J J J J P G y w w q 3 2 2 2 2 < < < o . X X                 ",
"                X X . * #.y.y.,.K D D D C C V N i t y y y y y y t y y y t t u u f g f g d f d d w 5 9 3 O . X X                 ",
"                X X . * #.y.y.,.F S A S S S S B t 0 5 0 0 0 0 5 0 0 0 0 0 0 q w f h h g h h h h w q q 4 O X X X                 ",
"                X X X - #.y.y.,.K A S S S S S B t 0 0 0 q q q q q q q q 0 0 0 0 g g k h h h h g w q q 4 O . X X                 ",
"                X X . - ^ #.#./ D V S S N N N n i 0 w 0 w w w w w w w w w w t w d f f f h h h f 9 4 3 2 O X X X                 ",
"                        - - - : b S S B 9 6 7 9 d g f g g f g f g g g g g g h d 4 2 2 8 f g h s % O O O                         ",
"                        . . . # n S S N 7 < , 2 g h h h h h h h h h g k h h h d 2 < , 2 f k k s @ . . .                         ",
"                        X X . # n S S N 7 < < 6 d h h h h h h h h g k g h h h f 2 < < 2 f k g s @ X X X                         ",
"                        X X . % n A C N 6 < , 2 d h h h h h h h h h g k h h h d 2 < , 2 s g g a @ . X X                         ",
"                        X X . $ g m m k 3 < < 2 d h h h h h h h h h h h h h h f 2 < < < q w w 5 @ . X X                         ",
"                        X X . $ g l m k 2 < < 2 f h h h h k h h h h g h h h h f 2 < < 2 5 q q 7 o . X X                         ",
"                        X X X $ g m c k 2 < < 2 f h h h h g h h h h h h h h h f 2 < < < 5 q q 3 @ . X X                         ",
"                        X X . $ a g g d 3 < < 3 f k g h h h h h h h h h h h h f 2 < < 2 4 4 3 2 o . X X                         ",
"                                # # $ % 4 5 5 w f g h h h h h h h h h h h h h f w 5 5 3 # O O @                                 ",
"                                . . X O 3 q q w g h h h h h h g h h h h h h h f w q q 4 o . . .                                 ",
"                                X X X O 4 q q w g h h h h h h k h h h h h h h g w 0 q 4 O . X X                                 ",
"                                X X X O 2 4 7 8 a s s s s s s s s s s s s s s a 5 4 4 2 @ . X X                                 ",
"                                        @ o @ O @ $ $ @ $ @ @ $ + + $ @ # @ $ @ @ O O @                                         ",
"                                        . . X X . . . . . X . . . . . . . X . . . . . .                                         ",
"                                        . X X X X X X X X X X X X X X X X X X X X X X X                                         ",
"                                        X X X X X X X X X X X X X X X X X X X X X X X X                                         ",
"                                                                                                                                ",
"                                                                                                                                ",
"                                                                                                                                ",
"                                                                                                                                "
};
